<svg width="82" height="82" viewBox="0 0 82 82" fill="none" xmlns="http://www.w3.org/2000/svg">
<path d="M78.8897 12.852L42.4437 0.245213C41.5103 -0.0817378 40.4994 -0.0817378 39.566 0.245213L3.12001 12.852C2.25037 13.1509 1.48776 13.7149 0.931735 14.4704C0.375707 15.2259 0.0520861 16.1379 0.00311536 17.0871C-0.00103845 17.1698 -0.00103845 17.2527 0.00311536 17.3353V48.8524C0.00311536 50.1062 0.483095 51.3087 1.33746 52.1953C2.19183 53.0819 3.3506 53.58 4.55886 53.58C5.76712 53.58 6.92589 53.0819 7.78026 52.1953C8.63463 51.3087 9.11461 50.1062 9.11461 48.8524V23.8948L18.116 27.0071C15.3224 32.5561 14.4922 38.9459 15.77 45.0644C17.0477 51.183 20.3525 56.6429 25.1091 60.494C18.8845 63.6793 13.6166 68.5683 9.8739 74.6334C9.53687 75.1532 9.30276 75.7373 9.18519 76.3519C9.06763 76.9664 9.06894 77.599 9.18906 78.213C9.30919 78.827 9.54572 79.4101 9.88492 79.9284C10.2241 80.4467 10.6592 80.8899 11.1649 81.2322C11.6706 81.5745 12.2368 81.809 12.8306 81.9222C13.4244 82.0354 14.034 82.025 14.6239 81.8915C15.2138 81.7581 15.7723 81.5044 16.2669 81.145C16.7614 80.7856 17.1822 80.3278 17.5048 79.7982C22.9223 71.1468 31.5137 66.1868 41.0048 66.1868C50.496 66.1868 59.0874 71.1468 64.5239 79.7982C64.8465 80.3278 65.2673 80.7856 65.7618 81.145C66.2564 81.5044 66.8148 81.7581 67.4047 81.8915C67.9946 82.025 68.6042 82.0354 69.198 81.9222C69.7919 81.809 70.3581 81.5745 70.8638 81.2322C71.3695 80.8899 71.8046 80.4467 72.1437 79.9284C72.4829 79.4101 72.7195 78.827 72.8396 78.213C72.9597 77.599 72.961 76.9664 72.8435 76.3519C72.7259 75.7373 72.4918 75.1532 72.1548 74.6334C68.4085 68.5613 63.1336 63.6677 56.9006 60.4822C61.6572 56.6311 64.962 51.1712 66.2397 45.0526C67.5174 38.9341 66.6873 32.5443 63.8937 26.9953L78.8897 21.8068C79.7956 21.4923 80.5834 20.8902 81.1415 20.0857C81.6997 19.2811 82 18.3149 82 17.3235C82 16.3322 81.6997 15.3659 81.1415 14.5614C80.5834 13.7569 79.7956 13.1547 78.8897 12.8402V12.852ZM41.0048 9.70033L63.0433 17.3353L41.0048 24.9585L18.9854 17.3353L41.0048 9.70033ZM57.7093 39.3973C57.7097 42.0898 57.1058 44.7453 55.9453 47.1535C54.7849 49.5617 53.0998 51.6562 51.0236 53.2711C48.9475 54.8859 46.5374 55.9767 43.9843 56.457C41.4313 56.9372 38.8056 56.7937 36.3153 56.0378C33.825 55.2819 31.5387 53.9345 29.6375 52.1022C27.7363 50.27 26.2725 48.0034 25.3622 45.482C24.4519 42.9607 24.1201 40.254 24.3932 37.5765C24.6662 34.8989 25.5365 32.3242 26.9352 30.0564L39.566 34.4255C40.4995 34.7513 41.5101 34.7513 42.4437 34.4255L55.0745 30.0564C56.7973 32.8437 57.7118 36.086 57.7093 39.3973Z" fill="white"/>
</svg>
