<svg width="359" height="300" viewBox="0 0 359 300" fill="none" xmlns="http://www.w3.org/2000/svg">
<path d="M179.032 79.0787V22.2094C179.025 17.8176 177.709 13.5262 175.25 9.87591C172.791 6.22565 169.298 3.37992 165.213 1.69734C161.128 0.0147629 156.633 -0.429377 152.294 0.420907C147.955 1.27119 143.966 3.37784 140.831 6.47538L0 144.437L140.831 282.377C142.905 284.448 145.37 286.091 148.085 287.213C150.801 288.334 153.712 288.911 156.653 288.911C159.594 288.911 162.506 288.334 165.221 287.213C167.936 286.091 170.402 284.448 172.475 282.377C174.554 280.315 176.204 277.865 177.329 275.169C178.454 272.473 179.033 269.583 179.032 266.665V211.351C240.575 212.863 307.824 223.93 358.065 300V277.777C358.065 174.816 279.738 90.1459 179.032 79.0787Z" fill="black"/>
</svg>
