<svg width="105" height="80" viewBox="0 0 105 80" fill="none" xmlns="http://www.w3.org/2000/svg">
<path fill-rule="evenodd" clip-rule="evenodd" d="M47.2222 17.7778C47.2222 13.0628 49.0952 8.54097 52.4292 5.20699C55.7632 1.87301 60.285 0 65 0C69.715 0 74.2368 1.87301 77.5708 5.20699C80.9048 8.54097 82.7778 13.0628 82.7778 17.7778C82.7778 22.4927 80.9048 27.0146 77.5708 30.3486C74.2368 33.6825 69.715 35.5556 65 35.5556C60.285 35.5556 55.7632 33.6825 52.4292 30.3486C49.0952 27.0146 47.2222 22.4927 47.2222 17.7778ZM47.2222 44.4444C41.3285 44.4444 35.6762 46.7857 31.5087 50.9532C27.3413 55.1207 25 60.773 25 66.6667C25 70.2029 26.4048 73.5943 28.9052 76.0948C31.4057 78.5952 34.7971 80 38.3333 80H91.6667C95.2029 80 98.5943 78.5952 101.095 76.0948C103.595 73.5943 105 70.2029 105 66.6667C105 60.773 102.659 55.1207 98.4913 50.9532C94.3238 46.7857 88.6715 44.4444 82.7778 44.4444H47.2222Z" fill="white"/>
<path d="M24.96 41.02H16.14V49.96H8.82V41.02H0V33.82H8.82V25H16.14V33.82H24.96V41.02Z" fill="white"/>
</svg>
