<svg width="118" height="82" viewBox="0 0 118 82" fill="none" xmlns="http://www.w3.org/2000/svg">
<path d="M24.9859 43.3801H16.1659V52.3201H8.84588V43.3801H0.0258789V36.1801H8.84588V27.3601H16.1659V36.1801H24.9859V43.3801Z" fill="white"/>
<path d="M100.222 8.2V32.8L91.3333 24.6L82.4444 32.8V8.2H64.6667V73.8H109.111V8.2H100.222ZM38 20.5V12.3H46.8889V8.2C46.8889 6.02522 47.8254 3.93952 49.4924 2.40172C51.1594 0.863926 53.4203 0 55.7778 0H109.111C113.778 0 118 3.895 118 8.2V73.8C118 78.105 113.778 82 109.111 82H55.7778C51.1111 82 46.8889 78.105 46.8889 73.8V69.7H38V61.5H46.8889V45.1H38V36.9H46.8889V20.5H38ZM46.8889 12.3V20.5H55.7778V12.3H46.8889ZM46.8889 69.7H55.7778V61.5H46.8889V69.7ZM46.8889 45.1H55.7778V36.9H46.8889V45.1Z" fill="white"/>
</svg>
