<svg width="120" height="82" viewBox="0 0 120 82" fill="none" xmlns="http://www.w3.org/2000/svg">
<path d="M116.89 12.852L80.4437 0.245213C79.5103 -0.0817378 78.4994 -0.0817378 77.566 0.245213L41.12 12.852C40.2504 13.1509 39.4878 13.7149 38.9317 14.4704C38.3757 15.2259 38.0521 16.1379 38.0031 17.0871C37.999 17.1698 37.999 17.2527 38.0031 17.3353V48.8524C38.0031 50.1062 38.4831 51.3087 39.3375 52.1953C40.1918 53.0819 41.3506 53.58 42.5589 53.58C43.7671 53.58 44.9259 53.0819 45.7803 52.1953C46.6346 51.3087 47.1146 50.1062 47.1146 48.8524V23.8948L56.116 27.0071C53.3224 32.5561 52.4922 38.9459 53.77 45.0644C55.0477 51.183 58.3525 56.6429 63.1091 60.494C56.8845 63.6793 51.6166 68.5683 47.8739 74.6334C47.5369 75.1532 47.3028 75.7373 47.1852 76.3519C47.0676 76.9664 47.0689 77.599 47.1891 78.213C47.3092 78.827 47.5457 79.4101 47.8849 79.9284C48.2241 80.4467 48.6592 80.8899 49.1649 81.2322C49.6706 81.5744 50.2368 81.809 50.8306 81.9222C51.4244 82.0354 52.034 82.025 52.6239 81.8915C53.2138 81.7581 53.7723 81.5044 54.2669 81.145C54.7614 80.7856 55.1822 80.3278 55.5048 79.7982C60.9223 71.1468 69.5137 66.1868 79.0048 66.1868C88.496 66.1868 97.0874 71.1468 102.524 79.7982C102.846 80.3278 103.267 80.7856 103.762 81.145C104.256 81.5044 104.815 81.7581 105.405 81.8915C105.995 82.025 106.604 82.0354 107.198 81.9222C107.792 81.809 108.358 81.5744 108.864 81.2322C109.369 80.8899 109.805 80.4467 110.144 79.9284C110.483 79.4101 110.719 78.827 110.84 78.213C110.96 77.599 110.961 76.9664 110.843 76.3519C110.726 75.7373 110.492 75.1532 110.155 74.6334C106.409 68.5613 101.134 63.6677 94.9006 60.4822C99.6572 56.6311 102.962 51.1712 104.24 45.0526C105.517 38.9341 104.687 32.5443 101.894 26.9953L116.89 21.8068C117.796 21.4923 118.583 20.8902 119.142 20.0857C119.7 19.2811 120 18.3149 120 17.3235C120 16.3322 119.7 15.3659 119.142 14.5614C118.583 13.7569 117.796 13.1547 116.89 12.8402V12.852ZM79.0048 9.70033L101.043 17.3353L79.0048 24.9585L56.9854 17.3353L79.0048 9.70033ZM95.7093 39.3973C95.7097 42.0898 95.1058 44.7453 93.9453 47.1535C92.7849 49.5617 91.0998 51.6562 89.0236 53.2711C86.9475 54.8859 84.5373 55.9767 81.9843 56.457C79.4313 56.9372 76.8056 56.7937 74.3153 56.0378C71.825 55.2819 69.5387 53.9345 67.6375 52.1022C65.7363 50.27 64.2725 48.0034 63.3622 45.482C62.4519 42.9607 62.1201 40.254 62.3932 37.5765C62.6662 34.8989 63.5365 32.3242 64.9352 30.0564L77.566 34.4255C78.4995 34.7513 79.5102 34.7513 80.4437 34.4255L93.0745 30.0564C94.7973 32.8437 95.7118 36.086 95.7093 39.3973Z" fill="white"/>
<path d="M24.9859 50.38H16.1659V59.32H8.84588V50.38H0.0258789V43.18H8.84588V34.36H16.1659V43.18H24.9859V50.38Z" fill="white"/>
</svg>
