<svg width="121" height="82" viewBox="0 0 121 82" fill="none" xmlns="http://www.w3.org/2000/svg">
<path d="M113 61.5C115.122 61.5 117.157 60.6361 118.657 59.0983C120.157 57.5605 121 55.4748 121 53.3V8.2C121 6.02522 120.157 3.93952 118.657 2.40172C117.157 0.863926 115.122 0 113 0H70.84C72.24 2.501 73 5.33 73 8.2H113V53.3H77V61.5M93 20.5V28.7H69V82H61V57.4H53V82H45V49.2H39V28.7C39 26.5252 39.8429 24.4395 41.3431 22.9017C42.8434 21.3639 44.8783 20.5 47 20.5H93ZM65 8.2C65 10.3748 64.1571 12.4605 62.6569 13.9983C61.1566 15.5361 59.1217 16.4 57 16.4C54.8783 16.4 52.8434 15.5361 51.3431 13.9983C49.8429 12.4605 49 10.3748 49 8.2C49 6.02522 49.8429 3.93952 51.3431 2.40172C52.8434 0.863926 54.8783 0 57 0C59.1217 0 61.1566 0.863926 62.6569 2.40172C64.1571 3.93952 65 6.02522 65 8.2Z" fill="white"/>
<path d="M24.9859 47.3801H16.1659V56.3201H8.84588V47.3801H0.0258789V40.1801H8.84588V31.3601H16.1659V40.1801H24.9859V47.3801Z" fill="white"/>
</svg>
