<svg width="83" height="90" viewBox="0 0 83 90" fill="none" xmlns="http://www.w3.org/2000/svg">
<path d="M74.7 6.66667H66.4V5C66.4 3.67392 65.8753 2.40215 64.9414 1.46447C64.0075 0.526784 62.7408 0 61.42 0C60.0992 0 58.8325 0.526784 57.8986 1.46447C56.9647 2.40215 56.44 3.67392 56.44 5V6.66667H26.56V5C26.56 3.67392 26.0353 2.40215 25.1014 1.46447C24.1675 0.526784 22.9008 0 21.58 0C20.2592 0 18.9925 0.526784 18.0586 1.46447C17.1247 2.40215 16.6 3.67392 16.6 5V6.66667H8.3C6.0987 6.66667 3.98757 7.54464 2.43101 9.10744C0.874462 10.6702 0 12.7899 0 15V81.6667C0 83.8768 0.874462 85.9964 2.43101 87.5592C3.98757 89.122 6.0987 90 8.3 90H74.7C76.9013 90 79.0124 89.122 80.569 87.5592C82.1255 85.9964 83 83.8768 83 81.6667V15C83 12.7899 82.1255 10.6702 80.569 9.10744C79.0124 7.54464 76.9013 6.66667 74.7 6.66667ZM16.6 16.6667C16.6 17.9927 17.1247 19.2645 18.0586 20.2022C18.9925 21.1399 20.2592 21.6667 21.58 21.6667C22.9008 21.6667 24.1675 21.1399 25.1014 20.2022C26.0353 19.2645 26.56 17.9927 26.56 16.6667H56.44C56.44 17.9927 56.9647 19.2645 57.8986 20.2022C58.8325 21.1399 60.0992 21.6667 61.42 21.6667C62.7408 21.6667 64.0075 21.1399 64.9414 20.2022C65.8753 19.2645 66.4 17.9927 66.4 16.6667H73.04V26.6667H9.96V16.6667H16.6ZM9.96 80V36.6667H73.04V80H9.96ZM34.86 46.6667V70C34.86 71.3261 34.3353 72.5978 33.4014 73.5355C32.4675 74.4732 31.2008 75 29.88 75C28.5592 75 27.2925 74.4732 26.3586 73.5355C25.4247 72.5978 24.9 71.3261 24.9 70V54.7167C23.715 55.1071 22.4273 55.037 21.2914 54.5201C20.1555 54.0032 19.2541 53.0772 18.7654 51.9252C18.2767 50.7732 18.2363 49.479 18.6522 48.2986C19.0681 47.1181 19.91 46.1373 21.0114 45.55L27.6514 42.2167C28.4091 41.836 29.2509 41.6557 30.0973 41.6928C30.9437 41.7299 31.7667 41.9832 32.4884 42.4288C33.2101 42.8743 33.8067 43.4973 34.2217 44.2389C34.6367 44.9804 34.8564 45.8161 34.86 46.6667ZM60.3783 60.7833L56.3985 65H58.1C59.4208 65 60.6875 65.5268 61.6214 66.4645C62.5553 67.4021 63.08 68.6739 63.08 70C63.08 71.3261 62.5553 72.5978 61.6214 73.5355C60.6875 74.4732 59.4208 75 58.1 75H44.82C43.8468 74.9997 42.895 74.713 42.0823 74.1755C41.2696 73.638 40.6315 72.8732 40.247 71.9756C39.8624 71.078 39.7483 70.087 39.9186 69.1249C40.0889 68.1629 40.5363 67.2721 41.2053 66.5625L52.8917 54.1667C53.0395 53.9139 53.1182 53.6264 53.12 53.3333C53.1209 52.9657 53.0008 52.608 52.7782 52.316C52.5556 52.0241 52.2431 51.8142 51.8893 51.7191C51.5356 51.624 51.1604 51.649 50.8223 51.7903C50.4842 51.9315 50.2021 52.181 50.0199 52.5C49.3468 53.6225 48.2617 54.4349 46.9981 54.7624C45.7344 55.0898 44.3932 54.9062 43.2631 54.2509C42.133 53.5957 41.3042 52.5212 40.955 51.2587C40.6059 49.9961 40.7643 48.6464 41.3962 47.5C42.6751 45.2756 44.6493 43.537 47.0127 42.554C49.376 41.571 51.9964 41.3985 54.4674 42.0632C56.9384 42.728 59.1218 44.1928 60.679 46.2305C62.2362 48.2682 63.0802 50.7649 63.08 53.3333C63.0876 55.8692 62.2653 58.3375 60.7394 60.3583C60.6281 60.5075 60.5075 60.6494 60.3783 60.7833Z" fill="white"/>
</svg>
