<svg width="80" height="59" viewBox="0 0 80 59" fill="none" xmlns="http://www.w3.org/2000/svg">
<path d="M19.3455 32.7636C22.8364 32.8364 26.0727 34.5818 28.2545 37.6364C29.593 39.4996 31.3572 41.0161 33.4002 42.0597C35.4432 43.1034 37.7059 43.6439 40 43.6364C44.6909 43.6364 49.0909 41.3818 51.7455 37.6C53.9273 34.5455 57.1636 32.8 60.6545 32.7273C58.0364 28.2909 47.5636 25.4545 40 25.4545C32.4727 25.4545 21.9636 28.2909 19.3455 32.7636ZM10.9091 32.7273C16.9455 32.7273 21.8182 27.8545 21.8182 21.8182C21.8182 15.7818 16.9455 10.9091 10.9091 10.9091C4.87273 10.9091 0 15.7818 0 21.8182C0 27.8545 4.87273 32.7273 10.9091 32.7273ZM69.0909 32.7273C75.1273 32.7273 80 27.8545 80 21.8182C80 15.7818 75.1273 10.9091 69.0909 10.9091C63.0545 10.9091 58.1818 15.7818 58.1818 21.8182C58.1818 27.8545 63.0545 32.7273 69.0909 32.7273ZM40 21.8182C46.0364 21.8182 50.9091 16.9455 50.9091 10.9091C50.9091 4.87273 46.0364 0 40 0C33.9636 0 29.0909 4.87273 29.0909 10.9091C29.0909 16.9455 33.9636 21.8182 40 21.8182Z" fill="white"/>
<path d="M72.7273 36.3636H60.8364C58.0364 36.3636 55.9273 38 54.7273 39.7091C54.5818 39.9273 49.7818 47.2727 40 47.2727C34.8 47.2727 28.9818 44.9455 25.2727 39.7091C23.8545 37.7091 21.6364 36.3636 19.1636 36.3636H7.27273C3.27273 36.3636 0 39.6364 0 43.6364V58.1818H25.4545V49.9636C29.6364 52.8727 34.6909 54.5455 40 54.5455C45.3091 54.5455 50.3636 52.8727 54.5455 49.9636V58.1818H80V43.6364C80 39.6364 76.7273 36.3636 72.7273 36.3636Z" fill="white"/>
</svg>
