<svg width="80" height="82" viewBox="0 0 80 82" fill="none" xmlns="http://www.w3.org/2000/svg">
<path d="M62.2222 8.2V32.8L53.3333 24.6L44.4444 32.8V8.2H26.6667V73.8H71.1111V8.2H62.2222ZM0 20.5V12.3H8.88889V8.2C8.88889 6.02522 9.82539 3.93952 11.4924 2.40172C13.1594 0.863926 15.4203 0 17.7778 0H71.1111C75.7778 0 80 3.895 80 8.2V73.8C80 78.105 75.7778 82 71.1111 82H17.7778C13.1111 82 8.88889 78.105 8.88889 73.8V69.7H0V61.5H8.88889V45.1H0V36.9H8.88889V20.5H0ZM8.88889 12.3V20.5H17.7778V12.3H8.88889ZM8.88889 69.7H17.7778V61.5H8.88889V69.7ZM8.88889 45.1H17.7778V36.9H8.88889V45.1Z" fill="white"/>
</svg>
