<svg width="98" height="96" viewBox="0 0 98 96" fill="none" xmlns="http://www.w3.org/2000/svg">
<path d="M15.766 69.5796C7.26066 72.1312 2 75.6562 2 79.5497C2 87.3369 23.0426 93.6497 49 93.6497C74.9574 93.6497 96 87.3369 96 79.5497C96 75.6562 90.7393 72.1312 82.2339 69.5796" stroke="black" stroke-width="4" stroke-linecap="round" stroke-linejoin="round"/>
<path d="M49.0002 74.85C49.0002 74.85 79.5502 54.8844 79.5502 31.8022C79.5502 15.3429 65.8725 2 49.0002 2C32.1279 2 18.4502 15.3429 18.4502 31.8022C18.4502 54.8844 49.0002 74.85 49.0002 74.85Z" fill="#2F88FF" stroke="black" stroke-width="4" stroke-linejoin="round"/>
<path d="M49 44.2998C55.4893 44.2998 60.75 39.0391 60.75 32.5498C60.75 26.0605 55.4893 20.7998 49 20.7998C42.5107 20.7998 37.25 26.0605 37.25 32.5498C37.25 39.0391 42.5107 44.2998 49 44.2998Z" fill="#43CCF8" stroke="white" stroke-width="4" stroke-linejoin="round"/>
</svg>
