<svg width="38" height="33" viewBox="0 0 38 33" fill="none" xmlns="http://www.w3.org/2000/svg">
<path d="M26.4376 9.03315H33.9717C34.4713 9.03315 34.9504 9.22982 35.3036 9.5799C35.6568 9.92998 35.8553 10.4048 35.8553 10.8999V31.4338L29.5775 26.2648C29.2387 25.9861 28.8123 25.8336 28.372 25.8336H13.2529C12.7533 25.8336 12.2742 25.6369 11.921 25.2869C11.5678 24.9368 11.3693 24.462 11.3693 23.9669V18.3667M26.4376 9.03315V3.433C26.4376 2.93792 26.2392 2.46311 25.8859 2.11303C25.5327 1.76296 25.0536 1.56628 24.5541 1.56628H3.83519C3.33565 1.56628 2.85657 1.76296 2.50333 2.11303C2.1501 2.46311 1.95166 2.93792 1.95166 3.433V23.9669L8.22948 18.7961C8.56852 18.5198 8.99419 18.3667 9.43494 18.3667H11.3693M26.4376 9.03315V16.5C26.4376 16.9951 26.2392 17.4699 25.8859 17.82C25.5327 18.1701 25.0536 18.3667 24.5541 18.3667H11.3693" stroke="white" stroke-width="3" stroke-linecap="round" stroke-linejoin="round"/>
</svg>
