<svg width="80" height="80" viewBox="0 0 80 80" fill="none" xmlns="http://www.w3.org/2000/svg">
<path fill-rule="evenodd" clip-rule="evenodd" d="M22.2222 17.7778C22.2222 13.0628 24.0952 8.54097 27.4292 5.20699C30.7632 1.87301 35.285 0 40 0C44.715 0 49.2368 1.87301 52.5708 5.20699C55.9048 8.54097 57.7778 13.0628 57.7778 17.7778C57.7778 22.4927 55.9048 27.0146 52.5708 30.3486C49.2368 33.6825 44.715 35.5556 40 35.5556C35.285 35.5556 30.7632 33.6825 27.4292 30.3486C24.0952 27.0146 22.2222 22.4927 22.2222 17.7778ZM22.2222 44.4444C16.3285 44.4444 10.6762 46.7857 6.50874 50.9532C2.34126 55.1207 0 60.773 0 66.6667C0 70.2029 1.40476 73.5943 3.90524 76.0948C6.40573 78.5952 9.79711 80 13.3333 80H66.6667C70.2029 80 73.5943 78.5952 76.0948 76.0948C78.5952 73.5943 80 70.2029 80 66.6667C80 60.773 77.6587 55.1207 73.4913 50.9532C69.3238 46.7857 63.6715 44.4444 57.7778 44.4444H22.2222Z" fill="white"/>
</svg>
