<svg width="113" height="88" viewBox="0 0 113 88" fill="none" xmlns="http://www.w3.org/2000/svg">
<path d="M108.964 8H88.7857V1C88.7857 0.45 88.3317 0 87.7768 0H80.7143C80.1594 0 79.7054 0.45 79.7054 1V8H61.0402V1C61.0402 0.45 60.5862 0 60.0312 0H52.9688C52.4138 0 51.9598 0.45 51.9598 1V8H33.2946V1C33.2946 0.45 32.8406 0 32.2857 0H25.2232C24.6683 0 24.2143 0.45 24.2143 1V8H4.03571C1.80346 8 0 9.7875 0 12V84C0 86.2125 1.80346 88 4.03571 88H108.964C111.197 88 113 86.2125 113 84V12C113 9.7875 111.197 8 108.964 8ZM103.92 79H9.08036V17H24.2143V24C24.2143 24.55 24.6683 25 25.2232 25H32.2857C32.8406 25 33.2946 24.55 33.2946 24V17H51.9598V24C51.9598 24.55 52.4138 25 52.9688 25H60.0312C60.5862 25 61.0402 24.55 61.0402 24V17H79.7054V24C79.7054 24.55 80.1594 25 80.7143 25H87.7768C88.3317 25 88.7857 24.55 88.7857 24V17H103.92V79ZM44.3929 42H21.1875C20.6326 42 20.1786 42.45 20.1786 43V49C20.1786 49.55 20.6326 50 21.1875 50H44.3929C44.9478 50 45.4018 49.55 45.4018 49V43C45.4018 42.45 44.9478 42 44.3929 42ZM44.3929 59H21.1875C20.6326 59 20.1786 59.45 20.1786 60V66C20.1786 66.55 20.6326 67 21.1875 67H44.3929C44.9478 67 45.4018 66.55 45.4018 66V60C45.4018 59.45 44.9478 59 44.3929 59ZM83.2618 36.825L70.1962 54.7875L63.5373 45.65C63.1589 45.125 62.5536 44.825 61.9104 44.825H54.9866C54.1668 44.825 53.6876 45.75 54.1668 46.4125L68.5567 66.1875C68.7425 66.443 68.9869 66.6512 69.2697 66.7947C69.5526 66.9382 69.8658 67.0131 70.1836 67.0131C70.5014 67.0131 70.8146 66.9382 71.0975 66.7947C71.3803 66.6512 71.6247 66.443 71.8105 66.1875L92.6196 37.6C93.0989 36.9375 92.6196 36.0125 91.7999 36.0125H84.8761C84.2455 36 83.6402 36.3125 83.2618 36.825Z" fill="white"/>
</svg>
