<svg width="82" height="91" viewBox="0 0 82 91" fill="none" xmlns="http://www.w3.org/2000/svg">
<path d="M72.8889 9.1H53.8467C51.9333 3.822 46.9222 0 41 0C35.0778 0 30.0667 3.822 28.1533 9.1H9.11111C6.69469 9.1 4.37725 10.0587 2.66858 11.7653C0.959917 13.4719 0 15.7865 0 18.2V81.9C0 84.3135 0.959917 86.6281 2.66858 88.3347C4.37725 90.0413 6.69469 91 9.11111 91H72.8889C75.3053 91 77.6227 90.0413 79.3314 88.3347C81.0401 86.6281 82 84.3135 82 81.9V18.2C82 15.7865 81.0401 13.4719 79.3314 11.7653C77.6227 10.0587 75.3053 9.1 72.8889 9.1ZM41 9.1C42.2082 9.1 43.3669 9.57937 44.2213 10.4327C45.0756 11.286 45.5556 12.4433 45.5556 13.65C45.5556 14.8567 45.0756 16.014 44.2213 16.8673C43.3669 17.7206 42.2082 18.2 41 18.2C39.7918 18.2 38.6331 17.7206 37.7787 16.8673C36.9244 16.014 36.4444 14.8567 36.4444 13.65C36.4444 12.4433 36.9244 11.286 37.7787 10.4327C38.6331 9.57937 39.7918 9.1 41 9.1ZM18.2222 27.3H63.7778V18.2H72.8889V81.9H9.11111V18.2H18.2222V27.3ZM20.5 56.875L27.3333 50.05L36.4444 59.15L56.9444 38.675L63.7778 45.5L36.4444 72.8L20.5 56.875Z" fill="white"/>
</svg>
