<svg width="100" height="100" viewBox="0 0 100 100" fill="none" xmlns="http://www.w3.org/2000/svg">
<path d="M50 54.1668C59.9833 54.1668 69.0625 57.0585 75.7417 61.1335C79.075 63.1668 81.925 65.5668 83.9833 68.1752C86.0083 70.7377 87.5 73.8043 87.5 77.0835C87.5 80.6043 85.7875 83.3793 83.3208 85.3585C80.9875 87.2335 77.9083 88.4752 74.6375 89.3418C68.0625 91.0793 59.2875 91.6668 50 91.6668C40.7125 91.6668 31.9375 91.0835 25.3625 89.3418C22.0917 88.4752 19.0125 87.2335 16.6792 85.3585C14.2083 83.3752 12.5 80.6043 12.5 77.0835C12.5 73.8043 13.9917 70.7377 16.0167 68.171C18.075 65.5668 20.9208 63.171 24.2583 61.1293C30.9375 57.0627 40.0208 54.1668 50 54.1668ZM50 8.3335C55.5253 8.3335 60.8244 10.5284 64.7314 14.4354C68.6384 18.3424 70.8333 23.6415 70.8333 29.1668C70.8333 34.6922 68.6384 39.9912 64.7314 43.8982C60.8244 47.8052 55.5253 50.0002 50 50.0002C44.4747 50.0002 39.1756 47.8052 35.2686 43.8982C31.3616 39.9912 29.1667 34.6922 29.1667 29.1668C29.1667 23.6415 31.3616 18.3424 35.2686 14.4354C39.1756 10.5284 44.4747 8.3335 50 8.3335Z" fill="black"/>
</svg>
