<svg width="88" height="93" viewBox="0 0 88 93" fill="none" xmlns="http://www.w3.org/2000/svg">
<path d="M53.5652 13.454V76.8801H7.65217V13.454H53.5652ZM61.2174 5.76601H0V86.4902H61.2174V5.76601ZM13.3913 21.142H47.8261V28.8301H13.3913V21.142ZM13.3913 34.5961H47.8261V42.2841H13.3913V34.5961ZM13.3913 48.0501H47.8261V55.7381H13.3913V48.0501ZM13.3913 61.5041H47.8261V69.1921H13.3913V61.5041ZM72.6957 21.142H88V74.9581H72.6957V21.142ZM80.3593 0C76.1621 0 72.6957 3.39234 72.6957 7.56693V15.376H88V7.56693C88 3.39234 84.5393 0 80.3593 0ZM72.577 80.7242L80.3077 93L88 80.7242H72.577Z" fill="white"/>
</svg>
