<svg width="82" height="82" viewBox="0 0 82 82" fill="none" xmlns="http://www.w3.org/2000/svg">
<path d="M74 61.5C76.1217 61.5 78.1566 60.6361 79.6569 59.0983C81.1571 57.5605 82 55.4748 82 53.3V8.2C82 6.02522 81.1571 3.93952 79.6569 2.40172C78.1566 0.863926 76.1217 0 74 0H31.84C33.24 2.501 34 5.33 34 8.2H74V53.3H38V61.5M54 20.5V28.7H30V82H22V57.4H14V82H6V49.2H0V28.7C0 26.5252 0.842854 24.4395 2.34315 22.9017C3.84344 21.3639 5.87827 20.5 8 20.5H54ZM26 8.2C26 10.3748 25.1571 12.4605 23.6569 13.9983C22.1566 15.5361 20.1217 16.4 18 16.4C15.8783 16.4 13.8434 15.5361 12.3431 13.9983C10.8429 12.4605 10 10.3748 10 8.2C10 6.02522 10.8429 3.93952 12.3431 2.40172C13.8434 0.863926 15.8783 0 18 0C20.1217 0 22.1566 0.863926 23.6569 2.40172C25.1571 3.93952 26 6.02522 26 8.2Z" fill="white"/>
</svg>
