<svg width="64" height="80" viewBox="0 0 64 80" fill="none" xmlns="http://www.w3.org/2000/svg">
<path d="M20 60V52M32 60V44M44 60V36M52 76H12C9.87827 76 7.84344 75.1571 6.34315 73.6569C4.84285 72.1566 4 70.1217 4 68V12C4 9.87827 4.84285 7.84344 6.34315 6.34315C7.84344 4.84285 9.87827 4 12 4H34.344C35.4048 4.00023 36.422 4.4218 37.172 5.172L58.828 26.828C59.5782 27.578 59.9998 28.5952 60 29.656V68C60 70.1217 59.1571 72.1566 57.6569 73.6569C56.1566 75.1571 54.1217 76 52 76Z" stroke="white" stroke-width="7" stroke-linecap="round" stroke-linejoin="round"/>
</svg>
