<svg xmlns="http://www.w3.org/2000/svg" viewBox="0 0 1165.01 234.69"><defs><style>.cls-1{fill:#fff;}</style></defs><title>CLAUAtivo 1</title><g id="Camada_2" data-name="Camada 2"><g id="Camada_2-2" data-name="Camada 2"><path class="cls-1" d="M916,21.56h45L872.28,213.12h-44.7Z"/><path class="cls-1" d="M328.3,72.35H260.4c-26.1,0-45,18.9-45,45s18.9,45,45,45h69.3a74,74,0,0,0,37.2,50.8H260.5a95.8,95.8,0,0,1,0-191.6h67.9v50.8Z"/><path class="cls-1" d="M733.5,136.75a25,25,0,0,0,50,0V21.55h50.6v116a75.6,75.6,0,1,1-151.2,0v-116h50.6Z"/><path class="cls-1" d="M398.7,137.25a25,25,0,0,0,25,25h67.5l-23.6,50.8H423.9a75.16,75.16,0,0,1-75.6-75.6v-116h50.3v115.8Z"/><polygon class="cls-1" points="616.8 188.05 597.1 145.65 569.1 145.65 583.1 115.55 558.2 61.85 487.6 213.15 537.9 213.15 549.4 188.05 616.8 188.05"/><path class="cls-1" d="M200.67,0,68.22,118.69l132.45,116H117.34L10,140.46Q0,132.25,0,118.69a27.85,27.85,0,0,1,2.56-11.78,29,29,0,0,1,7-9.56L118.23,0Z"/><path class="cls-1" d="M1046.56,0l108.89,97.34a29.08,29.08,0,0,1,7,9.56,28.63,28.63,0,0,1-.11,23.89,28.63,28.63,0,0,1-7.33,9.67l-107.56,94.23H964.34l132.45-116L964.34,0Z"/><polygon class="cls-1" points="588.8 103.55 639.6 213.15 689.9 213.15 599.7 21.55 577 21.55 563.8 49.85 588.8 103.55"/></g></g></svg>